# xmcd
#
# Track frame offsets:
#	150
#	20257
#	50907
#	91731
#
# Disc length: 1939 seconds
#
# Revision: 1
# Processed by: cddbd v1.5.2PL0 Copyright (c) Steve Scherf et al.
# Submitted via: audiograbber 1.83.01
#
DISCID=28079104
DTITLE=Wham! - Last Christmas
DYEAR=2006
DGENRE=Ballad
TTITLE0=Last Christmas (Radio Mix)
TTITLE1=Last Christmas (Pudding Mix)
TTITLE2=Everything she Wants
TTITLE3=Last Christmas (Video)
EXTD=
EXTT0=
EXTT1=
EXTT2=
EXTT3=
PLAYORDER=
